# 3ds Max Wavefront OBJ Exporter v0.97b - (c)2007 guruware
# File Created: 08.09.2013 15:26:32

#
# object Pot
#

v  -0.7220 -0.0711 0.3977
v  -0.5377 -0.0811 0.4740
v  -0.5587 0.0000 0.5523
v  -0.7575 0.0000 0.4592
v  -0.8802 -0.0700 0.2762
v  -0.9297 0.0000 0.3257
v  -0.7220 -0.0356 0.3977
v  -0.8802 -0.0350 0.2762
v  -0.9049 0.0000 0.3010
v  -0.7397 0.0000 0.4284
v  -0.6864 0.0000 0.3361
v  -0.5167 0.0000 0.3956
v  -0.8307 0.0000 0.2267
v  -0.7042 0.0000 0.3669
v  -0.8554 0.0000 0.2515
v  -0.7220 0.0711 0.3977
v  -0.5377 0.0811 0.4740
v  -0.8802 0.0700 0.2762
v  -0.7220 0.0356 0.3977
v  -0.8802 0.0350 0.2762
v  -0.3985 0.0027 0.4011
v  -0.3465 0.0981 0.5005
v  -0.3400 -0.0991 0.5000
v  -0.3985 0.0027 0.5846
v  -0.2000 -0.3411 0.6365
v  -0.2000 -0.3411 0.3000
v  0.2000 -0.3411 0.3000
v  0.2000 -0.3411 0.6365
v  0.4000 0.0053 0.6365
v  0.4000 0.0053 0.3000
v  0.2000 0.3517 0.3000
v  0.2000 0.3517 0.6365
v  -0.2000 0.3517 0.6365
v  -0.2000 0.3517 0.3000
v  -0.1000 0.1785 0.1000
v  0.1000 0.1785 0.1000
v  -0.4000 0.0053 0.3000
v  -0.2000 0.0053 0.1000
v  0.2000 0.0053 0.1000
v  0.1000 -0.1679 0.1000
v  -0.1000 -0.1679 0.1000
v  -0.4000 0.0053 0.6365
v  -0.0000 0.0053 0.9000
v  0.2200 0.0053 0.9000
v  0.1100 0.1959 0.9000
v  -0.1100 0.1959 0.9000
v  -0.2200 0.0053 0.9000
v  -0.1100 -0.1852 0.9000
v  0.1100 -0.1852 0.9000
v  0.4400 0.0053 0.7000
v  0.2200 0.3864 0.7000
v  -0.2200 0.3864 0.7000
v  -0.4400 0.0053 0.7000
v  -0.2200 -0.3757 0.7000
v  0.2200 -0.3757 0.7000
v  0.4400 0.0053 0.6365
v  0.2200 0.3864 0.6365
v  -0.2200 0.3864 0.6365
v  -0.4400 0.0053 0.6365
v  -0.2200 -0.3757 0.6365
v  0.2200 -0.3757 0.6365
# 61 vertices

vn -0.3050 -0.7013 0.6443
vn -0.3004 -0.7058 0.6416
vn -0.4356 -0.7038 0.5612
vn -0.4350 -0.7043 0.5610
vn 0.4338 0.7042 -0.5621
vn 0.4339 0.7039 -0.5623
vn 0.2345 -0.7061 -0.6682
vn 0.2400 -0.7013 -0.6713
vn 0.4287 -0.7043 -0.5658
vn 0.4293 -0.7038 -0.5660
vn -0.4308 0.7039 0.5647
vn -0.4307 0.7042 0.5645
vn 0.2380 0.7059 -0.6671
vn 0.2362 0.7009 -0.6730
vn 0.4290 0.7043 -0.5656
vn 0.4290 0.7038 -0.5662
vn -0.4308 -0.7039 0.5647
vn -0.4306 -0.7042 0.5645
vn -0.3022 0.7016 0.6454
vn -0.3034 0.7059 0.6400
vn -0.4353 0.7038 0.5614
vn -0.4353 0.7043 0.5608
vn 0.4337 -0.7042 -0.5622
vn 0.4339 -0.7039 -0.5623
vn -0.8660 0.0000 -0.5000
vn 0.0178 0.6970 -0.7168
vn 0.0342 0.7119 -0.7015
vn 0.0307 -0.6985 -0.7149
vn 0.0494 -0.6813 -0.7303
vn -0.1583 0.7069 0.6894
vn -0.1523 0.6989 0.6988
vn -0.1285 -0.7060 0.6965
vn -0.1560 -0.6830 0.7136
vn -0.0000 -1.0000 -0.0000
vn 0.8660 -0.5000 0.0000
vn 0.8660 0.5000 0.0000
vn 0.0000 1.0000 0.0000
vn 0.0000 0.7559 -0.6547
vn -0.6547 0.3780 -0.6547
vn 0.6547 0.3780 -0.6547
vn 0.6547 -0.3780 -0.6547
vn -0.0000 -0.7559 -0.6547
vn -0.6547 -0.3780 -0.6547
vn -0.7071 0.0000 -0.7071
vn -0.7071 -0.0000 -0.7071
vn -0.8660 -0.5000 -0.0000
vn -0.8663 -0.4996 -0.0018
vn -0.8656 -0.5007 -0.0000
vn -0.8662 -0.4997 0.0023
vn 0.0000 0.0000 -1.0000
vn -0.8946 0.4442 -0.0493
vn -0.8660 0.5000 -0.0000
vn -0.8711 0.4908 -0.0153
vn -0.8657 0.4998 0.0263
vn -0.0000 0.0000 1.0000
vn -0.0000 -0.0000 1.0000
vn 0.6270 0.3620 0.6897
vn 0.0000 0.7240 0.6897
vn -0.6270 0.3620 0.6897
vn -0.6270 -0.3620 0.6897
vn -0.0000 -0.7240 0.6897
vn 0.6270 -0.3620 0.6897
vn -0.0000 0.0000 -1.0000
# 63 vertex normals

vt 0.2813 0.2188 0.0000
vt 0.1563 0.2188 0.0000
vt 0.1563 0.1563 0.0000
vt 0.2813 0.1563 0.0000
vt 0.4063 0.2188 0.0000
vt 0.4063 0.1563 0.0000
vt 0.1617 0.4633 0.0000
vt 0.0000 0.4633 0.0000
vt 0.0000 0.5313 0.0000
vt 0.1617 0.5313 0.0000
vt 0.0985 0.3746 0.0000
vt 0.0641 0.3402 0.0000
vt 0.0985 0.3058 0.0000
vt 0.1329 0.3402 0.0000
vt 0.0313 0.2188 0.0000
vt 0.0313 0.1563 0.0000
vt 0.7500 0.2500 0.0000
vt 0.7500 0.0000 0.0000
vt 1.0000 0.0000 0.0000
vt 1.0000 0.2500 0.0000
vt 0.4688 0.5313 0.0000
vt 0.2813 0.6250 0.0000
vt 0.2813 0.2813 0.0000
vt 0.4688 0.3750 0.0000
vt 0.0354 0.3384 0.0000
vt 0.0979 0.2759 0.0000
vt 0.1604 0.3384 0.0000
vt 0.0979 0.4009 0.0000
vt 0.4688 0.0625 0.0000
vt 0.4688 0.0000 0.0000
vt 0.7188 0.0000 0.0000
vt 0.5313 0.1250 0.0000
vt 0.7188 0.2500 0.0000
vt 0.4688 0.1875 0.0000
vt 0.4688 0.2500 0.0000
vt 0.9063 0.6563 0.0000
vt 0.7188 0.6563 0.0000
vt 0.6250 0.5000 0.0000
vt 1.0000 0.5000 0.0000
vt 0.9063 0.3438 0.0000
vt 0.7188 0.3438 0.0000
vt 0.8125 0.5000 0.0000
vt 0.3438 0.0313 0.0000
vt 0.0313 0.0313 0.0000
vt 0.0313 0.0938 0.0000
vt 0.3438 0.0938 0.0000
# 46 texture coords

g Pot
s off
f 1/1/1 2/2/1 3/3/1 
f 3/3/2 4/4/2 1/1/2 
f 5/5/3 1/1/3 4/4/3 
f 4/4/4 6/6/4 5/5/4 
f 7/7/5 8/8/5 9/9/5 
f 9/9/6 10/10/6 7/7/6 
f 11/1/7 12/2/7 2/3/7 
f 2/3/8 1/4/8 11/1/8 
f 13/5/9 11/1/9 1/4/9 
f 1/4/10 5/6/10 13/5/10 
f 14/7/11 15/8/11 8/9/11 
f 8/9/12 7/10/12 14/7/12 
f 16/4/13 17/3/13 12/2/13 
f 12/2/14 11/1/14 16/4/14 
f 18/6/15 16/4/15 11/1/15 
f 11/1/16 13/5/16 18/6/16 
f 19/8/17 20/7/17 15/10/17 
f 15/10/18 14/9/18 19/8/18 
f 4/4/19 3/3/19 17/2/19 
f 17/2/20 16/1/20 4/4/20 
f 6/6/21 4/4/21 16/1/21 
f 16/1/22 18/5/22 6/6/22 
f 10/8/23 9/7/23 20/10/23 
f 20/10/24 19/9/24 10/8/24 
f 10/11/25 19/12/25 14/13/25 
f 14/13/25 7/14/25 10/11/25 
f 21/15/26 12/2/26 17/3/26 
f 17/3/27 22/16/27 21/15/27 
f 23/16/28 2/3/28 12/2/28 
f 12/2/29 21/15/29 23/16/29 
f 22/15/30 17/2/30 3/3/30 
f 3/3/31 24/16/31 22/15/31 
f 24/16/32 3/3/32 2/2/32 
f 2/2/33 23/15/33 24/16/33 
f 25/17/34 26/18/34 27/19/34 
f 27/19/34 28/20/34 25/17/34 
f 29/20/35 28/17/35 27/18/35 
f 27/18/35 30/19/35 29/20/35 
f 29/17/36 30/18/36 31/19/36 
f 31/19/36 32/20/36 29/17/36 
f 33/20/37 32/17/37 31/18/37 
f 31/18/37 34/19/37 33/20/37 
f 35/21/38 34/22/38 31/23/38 
f 31/23/38 36/24/38 35/21/38 
f 37/22/39 34/23/39 35/24/39 
f 35/24/39 38/21/39 37/22/39 
f 30/22/40 39/21/40 36/24/40 
f 36/24/40 31/23/40 30/22/40 
f 27/22/41 40/21/41 39/24/41 
f 39/24/41 30/23/41 27/22/41 
f 26/22/42 41/21/42 40/24/42 
f 40/24/42 27/23/42 26/22/42 
f 38/24/43 41/21/43 26/22/43 
f 26/22/43 37/23/43 38/24/43 
f 8/13/44 13/25/44 5/26/44 
f 9/14/44 8/13/44 5/26/44 
f 9/14/45 5/26/45 6/27/45 
f 20/11/44 9/14/44 6/27/44 
f 20/11/44 6/27/44 18/28/44 
f 13/25/45 8/13/45 15/12/45 
f 18/28/44 13/25/44 15/12/44 
f 20/11/44 18/28/44 15/12/44 
f 21/29/46 37/30/46 26/31/46 
f 23/32/47 21/29/47 26/31/47 
f 23/32/48 26/31/48 25/33/48 
f 24/34/49 23/32/49 25/33/49 
f 24/34/46 25/33/46 42/35/46 
f 35/36/50 36/37/50 39/38/50 
f 38/39/50 35/36/50 39/38/50 
f 41/40/50 38/39/50 39/38/50 
f 41/40/50 39/38/50 40/41/50 
f 22/32/51 24/34/51 42/35/51 
f 22/32/52 42/35/52 33/33/52 
f 22/32/52 33/33/52 34/31/52 
f 21/29/53 22/32/53 34/31/53 
f 21/29/54 34/31/54 37/30/54 
f 43/42/55 44/38/55 45/41/55 
f 43/42/55 45/41/55 46/40/55 
f 43/42/56 46/40/56 47/39/56 
f 43/42/55 47/39/55 48/36/55 
f 43/42/55 48/36/55 49/37/55 
f 43/42/56 49/37/56 44/38/56 
f 44/24/57 50/23/57 51/22/57 
f 51/22/57 45/21/57 44/24/57 
f 45/21/58 51/22/58 52/23/58 
f 52/23/58 46/24/58 45/21/58 
f 46/21/59 52/22/59 53/23/59 
f 53/23/59 47/24/59 46/21/59 
f 47/21/60 53/22/60 54/23/60 
f 54/23/60 48/24/60 47/21/60 
f 48/21/61 54/22/61 55/23/61 
f 55/23/61 49/24/61 48/21/61 
f 49/24/62 55/23/62 50/22/62 
f 50/22/62 44/21/62 49/24/62 
f 56/43/36 57/44/36 51/45/36 
f 51/45/36 50/46/36 56/43/36 
f 57/44/37 58/43/37 52/46/37 
f 52/46/37 51/45/37 57/44/37 
f 58/45/52 59/46/52 53/43/52 
f 53/43/52 52/44/52 58/45/52 
f 59/46/46 60/45/46 54/44/46 
f 54/44/46 53/43/46 59/46/46 
f 60/46/34 61/45/34 55/44/34 
f 55/44/34 54/43/34 60/46/34 
f 50/46/35 55/45/35 61/44/35 
f 61/44/35 56/43/35 50/46/35 
f 59/39/50 58/36/50 57/37/50 
f 57/37/63 56/38/63 61/41/63 
f 59/39/50 57/37/50 61/41/50 
f 59/39/50 61/41/50 60/40/50 
# 110 faces

#
# object Legs
#

v  -0.0276 -0.4790 0.0269
v  -0.0154 -0.4578 0.0025
v  0.0154 -0.4578 0.0025
v  0.0276 -0.4790 0.0269
v  0.4332 0.2235 0.0269
v  0.4088 0.2235 0.0025
v  0.3934 0.2503 0.0025
v  0.4056 0.2714 0.0269
v  0.4056 -0.2608 0.0269
v  0.3934 -0.2396 0.0025
v  0.4088 -0.2129 0.0025
v  0.4332 -0.2129 0.0269
v  -0.0154 0.4685 0.0025
v  -0.0276 0.4896 0.0269
v  0.0276 0.4896 0.0269
v  0.0154 0.4685 0.0025
v  -0.4332 0.2235 0.0269
v  -0.4056 0.2714 0.0269
v  -0.3934 0.2503 0.0025
v  -0.4088 0.2235 0.0025
v  -0.4088 -0.2129 0.0025
v  -0.3934 -0.2396 0.0025
v  -0.4056 -0.2608 0.0269
v  -0.4332 -0.2129 0.0269
v  -0.1000 -0.2978 0.2500
v  -0.0500 -0.2112 0.1500
v  0.0500 -0.2112 0.1500
v  0.1000 -0.2978 0.2500
v  0.3125 0.0703 0.2500
v  0.2125 0.0703 0.1500
v  0.1625 0.1569 0.1500
v  0.2125 0.2435 0.2500
v  0.2125 -0.2328 0.2500
v  0.1625 -0.1462 0.1500
v  0.2125 -0.0596 0.1500
v  0.3125 -0.0596 0.2500
v  -0.0500 0.2218 0.1500
v  -0.1000 0.3084 0.2500
v  0.1000 0.3084 0.2500
v  0.0500 0.2218 0.1500
v  -0.3125 0.0703 0.2500
v  -0.2125 0.2435 0.2500
v  -0.1625 0.1569 0.1500
v  -0.2125 0.0703 0.1500
v  -0.2125 -0.0596 0.1500
v  -0.1625 -0.1462 0.1500
v  -0.2125 -0.2328 0.2500
v  -0.3125 -0.0596 0.2500
# 48 vertices

vn -0.0000 -0.7559 -0.6547
vn 0.6547 0.3780 -0.6547
vn 0.6547 -0.3780 -0.6547
vn 0.0000 0.7559 -0.6547
vn -0.6547 0.3780 -0.6547
vn -0.6547 -0.3780 -0.6547
vn -0.9211 0.0964 -0.3771
vn 0.0000 0.5131 -0.8583
vn -0.0000 0.5131 -0.8583
vn 0.9211 0.0964 -0.3771
vn -0.0000 -0.7762 0.6305
vn 0.3771 -0.8459 -0.3771
vn -0.4444 -0.2566 -0.8583
vn -0.5441 0.7495 -0.3771
vn 0.6722 0.3881 0.6305
vn -0.5441 -0.7495 -0.3771
vn -0.4444 0.2566 -0.8583
vn 0.3771 0.8459 -0.3771
vn 0.6722 -0.3881 0.6305
vn -0.9211 -0.0964 -0.3771
vn 0.0000 0.7762 0.6305
vn 0.9211 -0.0964 -0.3771
vn 0.0000 -0.5131 -0.8583
vn -0.0000 -0.5132 -0.8583
vn -0.6722 0.3881 0.6305
vn 0.5441 0.7495 -0.3771
vn 0.4444 -0.2566 -0.8583
vn -0.3771 -0.8459 -0.3771
vn 0.4444 0.2566 -0.8583
vn 0.5441 -0.7495 -0.3771
vn -0.6722 -0.3881 0.6305
vn -0.3771 0.8459 -0.3771
# 32 vertex normals

vt 0.8125 0.8750 0.0000
vt 0.8125 1.0000 0.0000
vt 1.0000 0.8750 0.0000
vt 1.0000 1.0000 0.0000
# 4 texture coords

g Legs
s off
f 62/47/64 63/47/64 64/48/64 
f 64/48/64 65/48/64 62/47/64 
f 66/47/65 67/47/65 68/48/65 
f 68/48/65 69/48/65 66/47/65 
f 70/48/66 71/47/66 72/49/66 
f 72/49/66 73/50/66 70/48/66 
f 74/49/67 75/50/67 76/48/67 
f 76/48/67 77/47/67 74/49/67 
f 78/47/68 79/48/68 80/48/68 
f 80/48/68 81/47/68 78/47/68 
f 82/50/69 83/48/69 84/47/69 
f 84/47/69 85/49/69 82/50/69 
f 86/48/70 87/47/70 63/49/70 
f 63/49/70 62/50/70 86/48/70 
f 87/49/71 88/50/71 64/48/71 
f 64/48/72 63/47/72 87/49/72 
f 88/48/73 89/47/73 65/49/73 
f 65/49/73 64/50/73 88/48/73 
f 89/48/74 86/47/74 62/49/74 
f 62/49/74 65/50/74 89/48/74 
f 90/49/75 91/50/75 67/48/75 
f 67/48/75 66/47/75 90/49/75 
f 91/49/76 92/50/76 68/48/76 
f 68/48/76 67/47/76 91/49/76 
f 92/48/77 93/47/77 69/49/77 
f 69/49/77 68/50/77 92/48/77 
f 93/49/78 90/50/78 66/48/78 
f 66/48/78 69/47/78 93/49/78 
f 94/49/79 95/50/79 71/48/79 
f 71/48/79 70/47/79 94/49/79 
f 95/48/80 96/47/80 72/49/80 
f 72/49/80 71/50/80 95/48/80 
f 96/48/81 97/47/81 73/49/81 
f 73/49/81 72/50/81 96/48/81 
f 97/48/82 94/47/82 70/49/82 
f 70/49/82 73/50/82 97/48/82 
f 98/49/83 99/50/83 75/48/83 
f 75/48/83 74/47/83 98/49/83 
f 99/48/84 100/47/84 76/49/84 
f 76/49/84 75/50/84 99/48/84 
f 100/49/85 101/50/85 77/48/85 
f 77/48/85 76/47/85 100/49/85 
f 101/48/86 98/47/86 74/49/86 
f 74/49/87 77/50/87 101/48/87 
f 102/49/88 103/50/88 79/48/88 
f 79/48/88 78/47/88 102/49/88 
f 103/48/89 104/47/89 80/49/89 
f 80/49/89 79/50/89 103/48/89 
f 104/49/90 105/50/90 81/48/90 
f 81/48/90 80/47/90 104/49/90 
f 105/49/91 102/50/91 78/48/91 
f 78/48/91 81/47/91 105/49/91 
f 106/48/92 107/47/92 83/49/92 
f 83/49/92 82/50/92 106/48/92 
f 107/49/93 108/50/93 84/48/93 
f 84/48/93 83/47/93 107/49/93 
f 108/48/94 109/47/94 85/49/94 
f 85/49/94 84/50/94 108/48/94 
f 109/48/95 106/47/95 82/49/95 
f 82/49/95 85/50/95 109/48/95 
# 60 faces

#
# object TubeMain
#

v  0.1491 0.0000 -0.1000
v  0.0741 0.1299 -0.1000
v  0.0741 0.1299 0.1000
v  0.1491 0.0000 0.1000
v  -0.0759 0.1299 -0.1000
v  -0.0759 0.1299 0.1000
v  -0.1509 -0.0000 -0.1000
v  -0.1509 -0.0000 0.1000
v  -0.0759 -0.1299 -0.1000
v  -0.0759 -0.1299 0.1000
v  0.0741 -0.1299 -0.1000
v  0.0741 -0.1299 0.1000
# 12 vertices

vn 1.0000 -0.0000 0.0000
vn 0.5000 0.8660 0.0000
vn -0.5000 0.8660 0.0000
vn -1.0000 -0.0000 0.0000
vn -0.5000 -0.8660 0.0000
vn 0.5000 -0.8660 0.0000
# 6 vertex normals

vt 0.1250 0.8750 0.0000
vt 0.0000 0.8750 0.0000
vt 0.0000 1.0000 0.0000
vt 0.1250 1.0000 0.0000
# 4 texture coords

g TubeMain
s 8
f 110/51/96 111/52/97 112/53/97 
f 112/53/97 113/54/96 110/51/96 
f 111/52/97 114/51/98 115/54/98 
f 115/54/98 112/53/97 111/52/97 
f 114/51/98 116/52/99 117/53/99 
f 117/53/99 115/54/98 114/51/98 
f 116/52/99 118/51/100 119/54/100 
f 119/54/100 117/53/99 116/52/99 
f 118/51/100 120/52/101 121/53/101 
f 121/53/101 119/54/100 118/51/100 
f 120/52/101 110/51/96 113/54/96 
f 113/54/96 121/53/101 120/52/101 
# 12 faces

#
# object TubeSmall
#

v  -0.0400 0.2100 -0.2500
v  0.0400 0.2100 -0.2500
v  0.0400 0.2100 0.2500
v  -0.0400 0.2100 0.2500
v  0.0400 0.2900 -0.2500
v  0.0400 0.2900 0.2500
v  -0.0400 0.2900 -0.2500
v  -0.0400 0.2900 0.2500
# 8 vertices

vn 0.0000 -1.0000 0.0000
vn 1.0000 0.0000 0.0000
vn 0.0000 1.0000 0.0000
vn -1.0000 0.0000 0.0000
# 4 vertex normals

vt 0.5000 0.5412 0.0000
vt 0.5625 0.5412 0.0000
vt 0.5625 1.0000 0.0000
vt 0.5000 1.0000 0.0000
# 4 texture coords

g TubeSmall
s 8
f 122/55/102 123/56/102 124/57/102 
f 124/57/102 125/58/102 122/55/102 
s 16
f 123/56/103 126/55/103 127/58/103 
f 127/58/103 124/57/103 123/56/103 
s 32
f 126/55/104 128/56/104 129/57/104 
f 129/57/104 127/58/104 126/55/104 
s 64
f 128/56/105 122/55/105 125/58/105 
f 125/58/105 129/57/105 128/56/105 
# 8 faces

