# 3ds Max Wavefront OBJ Exporter v0.97b - (c)2007 guruware
# File Created: 30.11.2013 18:27:13

mtllib test.mtl

#
# object NodeHolder
#

v  0.0000 0.0000 -0.5000
v  -0.2500 0.0000 -0.9330
v  -0.2500 0.0463 -0.9330
v  0.0000 0.0463 -0.5000
v  -0.7500 0.0000 -0.9330
v  -0.7500 0.0463 -0.9330
v  -1.0000 0.0000 -0.5000
v  -1.0000 0.0536 -0.5000
v  -0.7500 0.0000 -0.0670
v  -0.7500 0.0536 -0.0670
v  -0.2500 0.0000 -0.0670
v  -0.2500 0.0548 -0.0670
v  -0.3764 0.3282 -0.7141
v  -0.2528 0.3282 -0.5000
v  -0.6236 0.3282 -0.7141
v  -0.7472 0.3320 -0.5000
v  -0.6236 0.3320 -0.2859
v  -0.3764 0.3332 -0.2859
v  -0.6244 1.0013 -0.5000
v  -0.5622 1.0013 -0.3923
v  -0.4378 1.0013 -0.3923
v  -0.3756 0.9987 -0.5000
v  -0.4378 0.9987 -0.6077
v  -0.5622 0.9987 -0.6077
# 24 vertices

vn 1.0000 0.0000 0.0000
vn 0.5000 0.0000 -0.8660
vn 0.4730 0.3243 -0.8192
vn 0.9465 0.3228 -0.0020
vn -0.5000 0.0000 -0.8660
vn -0.4717 0.3229 -0.8205
vn -1.0000 0.0000 0.0000
vn -0.9447 0.3280 -0.0017
vn -0.5000 0.0000 0.8660
vn -0.4730 0.3263 0.8184
vn 0.5000 0.0000 0.8660
vn 0.4739 0.3286 0.8170
vn 0.3722 0.6677 -0.6447
vn 0.7448 0.6673 -0.0040
vn -0.3690 0.6677 -0.6465
vn -0.7402 0.6724 -0.0034
vn -0.3712 0.6722 0.6406
vn 0.3737 0.6726 0.6387
vn 0.0000 -1.0000 -0.0000
vn 0.0034 0.9999 -0.0117
vn 0.0000 1.0000 -0.0000
vn 0.0085 0.9999 -0.0088
vn 0.0203 0.9997 -0.0117
vn 0.0085 0.9999 -0.0147
vn 0.0000 0.9997 -0.0235
vn 0.8553 0.1566 -0.4938
vn 0.0000 0.1566 -0.9877
vn -0.8540 0.1567 -0.4961
vn -0.8553 0.1569 0.4938
vn -0.0005 0.1570 0.9876
vn 0.8569 0.1569 0.4910
# 31 vertex normals

vt 0.6384 0.2751 0.0000
vt 0.4555 0.2751 0.0000
vt 0.4555 0.2555 0.0000
vt 0.6384 0.2555 0.0000
vt 0.4555 0.2212 0.0000
vt 0.4555 0.0100 0.0000
vt 0.4751 0.0100 0.0000
vt 0.4751 0.2212 0.0000
vt 0.8213 0.3208 0.0000
vt 0.6384 0.3208 0.0000
vt 0.6384 0.2981 0.0000
vt 0.8213 0.3012 0.0000
vt 0.4555 0.3208 0.0000
vt 0.4555 0.2981 0.0000
vt 0.0100 0.6101 0.0000
vt 0.0100 0.3989 0.0000
vt 0.0331 0.3989 0.0000
vt 0.0326 0.6101 0.0000
vt 0.8213 0.2751 0.0000
vt 0.8213 0.2520 0.0000
vt 0.9900 0.5497 0.0000
vt 0.7788 0.5497 0.0000
vt 0.8322 0.3989 0.0000
vt 0.9366 0.3989 0.0000
vt 0.5941 0.0634 0.0000
vt 0.5941 0.1678 0.0000
vt 0.5363 0.7899 0.0000
vt 0.3251 0.7939 0.0000
vt 0.3739 0.6427 0.0000
vt 0.4783 0.6408 0.0000
vt 0.7705 0.9739 0.0000
vt 0.5593 0.9739 0.0000
vt 0.6127 0.8243 0.0000
vt 0.7171 0.8243 0.0000
vt 0.1508 0.4523 0.0000
vt 0.1503 0.5567 0.0000
vt 0.7705 0.7936 0.0000
vt 0.5593 0.7899 0.0000
vt 0.6173 0.6408 0.0000
vt 0.7217 0.6424 0.0000
vt 0.3268 0.3758 0.0000
vt 0.1156 0.3758 0.0000
vt 0.0100 0.1929 0.0000
vt 0.1156 0.0100 0.0000
vt 0.3268 0.0100 0.0000
vt 0.4324 0.1929 0.0000
vt 0.1151 0.8979 0.0000
vt 0.0888 0.9435 0.0000
vt 0.0363 0.9435 0.0000
vt 0.0100 0.8979 0.0000
vt 0.0363 0.8524 0.0000
vt 0.0888 0.8524 0.0000
vt 0.4637 0.4893 0.0000
vt 0.4637 0.3989 0.0000
vt 0.7470 0.4438 0.0000
vt 0.7470 0.4893 0.0000
vt 0.8774 0.0893 0.0000
vt 0.8774 0.1419 0.0000
vt 0.0100 0.8217 0.0000
vt 0.0116 0.7313 0.0000
vt 0.2943 0.7313 0.0000
vt 0.2933 0.7768 0.0000
vt 0.0116 0.6408 0.0000
vt 0.2943 0.6858 0.0000
vt 0.4330 0.4782 0.0000
vt 0.4330 0.5308 0.0000
vt 0.4658 0.5797 0.0000
vt 0.7480 0.5348 0.0000
# 68 texture coords

g NodeHolder
usemtl wire_176026026
s 8
f 1/1/1 2/2/2 3/3/3 4/4/4 
f 2/5/2 5/6/5 6/7/6 3/8/3 
f 5/9/5 7/10/7 8/11/8 6/12/6 
f 7/10/7 9/13/9 10/14/10 8/11/8 
f 9/15/9 11/16/11 12/17/12 10/18/10 
f 11/19/11 1/1/1 4/4/4 12/20/12 
f 4/21/4 3/22/3 13/23/13 14/24/14 
f 3/8/3 6/7/6 15/25/15 13/26/13 
f 6/27/6 8/28/8 16/29/16 15/30/15 
f 8/31/8 10/32/10 17/33/17 16/34/16 
f 10/18/10 12/17/12 18/35/18 17/36/17 
f 12/37/12 4/38/4 14/39/14 18/40/18 
s 1
f 5/41/19 2/42/19 1/43/19 11/44/19 9/45/19 7/46/19 
f 19/47/20 20/48/21 21/49/22 22/50/23 23/51/24 24/52/25 
s off
f 14/53/26 13/54/26 23/55/26 22/56/26 
f 13/26/27 15/25/27 24/57/27 23/58/27 
f 15/59/28 16/60/28 19/61/28 24/62/28 
f 16/60/29 17/63/29 20/64/29 19/61/29 
f 17/36/30 18/35/30 21/65/30 20/66/30 
f 18/67/31 14/53/31 22/56/31 21/68/31 
# 20 polygons

